<svg width="56" height="50" viewBox="0 0 56 50" fill="none" xmlns="http://www.w3.org/2000/svg">
<path d="M28.005 16.1272L19.3528 0.857917C19.6401 0.565426 19.9706 0.373577 20.3011 0.244629C17.7496 1.08436 16.5789 3.94952 16.5789 3.94952L0.772627 31.8368C0.550221 32.7111 0.488436 33.5006 0.516237 34.1956H17.7682L28.005 16.1272Z" fill="#34A853"/>
<path d="M28.0049 16.1272L38.2417 34.1956H55.4937C55.5215 33.5006 55.4597 32.7111 55.2373 31.8368L39.431 3.94952C39.431 3.94952 38.2572 1.08436 35.7088 0.244629C36.0362 0.373577 36.3698 0.565426 36.6571 0.857917L28.0049 16.1272Z" fill="#FBBC05"/>
<path d="M28.0048 16.1281L36.657 0.858776C36.3697 0.566284 36.0361 0.374435 35.7087 0.245487C35.3318 0.12283 34.9271 0.0410584 34.4885 0.019043H34.0313H21.9782H21.521C21.0854 0.0379134 20.6777 0.119685 20.3009 0.245487C19.9734 0.374435 19.6398 0.566284 19.3525 0.858776L28.0048 16.1281Z" fill="#188038"/>
<path d="M17.7708 34.1958L9.21743 49.2921C9.21743 49.2921 8.93324 49.1537 8.54712 48.8675C9.76109 49.8016 10.9411 49.9998 10.9411 49.9998H44.5337C46.3871 49.9998 46.7732 49.2921 46.7732 49.2921C46.7794 49.289 46.7824 49.2858 46.7886 49.2827L38.2414 34.1958H17.7708Z" fill="#4285F4"/>
<path d="M17.7714 34.1958H0.519531C0.606022 36.2464 1.49565 37.4447 1.49565 37.4447L2.14433 38.5706C2.19067 38.6366 2.21847 38.6744 2.21847 38.6744L3.63013 41.1527L6.79941 46.6691C6.89208 46.8924 7.0002 47.0969 7.11449 47.2919C7.15774 47.3579 7.19789 47.4302 7.24422 47.4931C7.25658 47.512 7.26893 47.5309 7.28129 47.5498C7.67359 48.1033 8.11223 48.531 8.55086 48.8675C8.93698 49.1569 9.22117 49.2921 9.22117 49.2921L17.7714 34.1958Z" fill="#1967D2"/>
<path d="M38.2432 34.1958H55.4951C55.4086 36.2464 54.519 37.4447 54.519 37.4447L53.8703 38.5706C53.8239 38.6366 53.7961 38.6744 53.7961 38.6744L52.3845 41.1527L49.2152 46.6691C49.1225 46.8924 49.0144 47.0969 48.9001 47.2919C48.8569 47.3579 48.8167 47.4302 48.7704 47.4931C48.758 47.512 48.7457 47.5309 48.7333 47.5498C48.341 48.1033 47.9024 48.531 47.4637 48.8675C47.0776 49.1569 46.7934 49.2921 46.7934 49.2921L38.2432 34.1958Z" fill="#EA4335"/>
</svg>
