<svg width="66" height="66" viewBox="0 0 66 66" fill="none" xmlns="http://www.w3.org/2000/svg">
<path d="M21.1202 26.9465V26.4387C21.1202 25.1515 22.1512 24.0839 23.4799 23.9952L33.1582 23.3491L46.5426 43.0586V25.7601L43.0975 25.3009V25.0597C43.0975 23.7573 44.152 22.6827 45.4977 22.6138L54.304 22.1627V23.4299C54.304 24.0249 53.8616 24.5337 53.2552 24.6363L51.1361 24.9947V53.009L48.4765 53.9236C46.2546 54.6877 43.7809 53.8698 42.509 51.9504L29.5152 32.3427V51.0572L33.5146 51.8226L33.4589 52.1936C33.2844 53.3556 32.2811 54.2344 31.0675 54.2884L21.1202 54.7312C20.9887 53.4816 21.9253 52.3637 23.2173 52.2279L24.5257 52.0905V27.1379L21.1202 26.9465Z" fill="black"/>
<path fill-rule="evenodd" clip-rule="evenodd" d="M44.6872 0.416712L4.80868 3.13938C2.41997 3.30247 0.568359 5.22287 0.568359 7.53723V46.3244C0.568359 48.499 1.31691 50.6118 2.69609 52.3299L11.2945 63.0415C12.6847 64.7734 14.8725 65.727 17.1359 65.5877L61.3966 62.8631C63.6651 62.7235 65.4311 60.9046 65.4311 58.7077V14.6104C65.4311 13.2512 64.7447 11.9776 63.5924 11.1985L49.5812 1.72549C48.1532 0.760074 46.4255 0.298031 44.6872 0.416712ZM6.78617 8.14225C6.23153 7.73161 6.49549 6.87612 7.19226 6.82615L44.9555 4.11753C46.1587 4.03123 47.3543 4.36256 48.3273 5.05195L55.9042 10.4201C56.1919 10.6239 56.0569 11.0638 55.7008 11.0832L15.7097 13.2582C14.4994 13.324 13.3048 12.9684 12.3425 12.256L6.78617 8.14225ZM13.8339 20.0765C13.8339 18.7773 14.8835 17.7042 16.2257 17.6311L58.5076 15.3284C59.8157 15.2572 60.9168 16.2631 60.9168 17.5293V55.7129C60.9168 57.0097 59.8709 58.0818 58.5315 58.158L16.5172 60.5486C15.0615 60.6314 13.8339 59.5128 13.8339 58.1035V20.0765Z" fill="black"/>
</svg>
